<svg width="16" height="21" viewBox="0 0 16 21" fill="none" xmlns="http://www.w3.org/2000/svg">
<g clip-path="url(#clip0_39_47)">
<path d="M13.4023 10.9961C13.3945 9.5625 14.043 8.48047 15.3555 7.68359C14.6211 6.63281 13.5117 6.05469 12.0469 5.94141C10.6602 5.83203 9.14453 6.75 8.58984 6.75C8.00391 6.75 6.66016 5.98047 5.60547 5.98047C3.42578 6.01562 1.10938 7.71875 1.10938 11.1836C1.10938 12.207 1.29687 13.2643 1.67188 14.3555C2.17188 15.7891 3.97656 19.3047 5.85938 19.2461C6.84375 19.2227 7.53906 18.5469 8.82031 18.5469C10.0625 18.5469 10.707 19.2461 11.8047 19.2461C13.7031 19.2188 15.3359 16.0234 15.8125 14.5859C13.2656 13.3867 13.4023 11.0703 13.4023 10.9961ZM11.1914 4.58203C12.2578 3.31641 12.1602 2.16406 12.1289 1.75C11.1875 1.80469 10.0977 2.39063 9.47656 3.11328C8.79297 3.88672 8.39062 4.84375 8.47656 5.92188C9.49609 6 10.4258 5.47656 11.1914 4.58203Z" fill="white"/>
</g>
<defs>
<clipPath id="clip0_39_47">
<path d="M0.953125 0.5H15.9531V20.5H0.953125V0.5Z" fill="white"/>
</clipPath>
</defs>
</svg>
