<svg width="20" height="21" viewBox="0 0 20 21" fill="none" xmlns="http://www.w3.org/2000/svg">
<g clip-path="url(#clip0_39_42)">
<path d="M19.0625 10.7266C19.0625 16.2539 15.2773 20.1875 9.6875 20.1875C4.32812 20.1875 0 15.8594 0 10.5C0 5.14062 4.32812 0.8125 9.6875 0.8125C12.2969 0.8125 14.4922 1.76953 16.1836 3.34766L13.5469 5.88281C10.0977 2.55469 3.68359 5.05469 3.68359 10.5C3.68359 13.8789 6.38281 16.6172 9.6875 16.6172C13.5234 16.6172 14.9609 13.8672 15.1875 12.4414H9.6875V9.10938H18.9102C19 9.60547 19.0625 10.082 19.0625 10.7266Z" fill="black"/>
</g>
<defs>
<clipPath id="clip0_39_42">
<path d="M0 0.5H19.0625V20.5H0V0.5Z" fill="white"/>
</clipPath>
</defs>
</svg>
